HIERARCHY
ROOT Hips
{
	OFFSET -3.958830 18.904000 13.208200
	CHANNELS 6 Xposition Yposition Zposition Zrotation Yrotation Xrotation 
	JOINT LHipJoint
	{
		OFFSET 0.000000 0.000000 0.000000
		CHANNELS 3 Zrotation Yrotation Xrotation
		JOINT LeftUpLeg
		{
			OFFSET 1.800000 -1.400000 0.085000
			CHANNELS 3 Zrotation Yrotation Xrotation
			JOINT LeftLeg
			{
				OFFSET 2.215000 -6.000000 0.000000
				CHANNELS 3 Zrotation Yrotation Xrotation
				JOINT LeftFoot
				{
					OFFSET 2.500000 -6.900000 0.000000
					CHANNELS 3 Zrotation Yrotation Xrotation
					JOINT LeftToeBase
					{
						OFFSET 0.200000 -0.500000 1.950000
						CHANNELS 3 Zrotation Yrotation Xrotation
						End Site
						{
							OFFSET 0.000000 0.000000 0.000000
						}
					}
				}
			}
		}
	}
	JOINT RHipJoint
	{
		OFFSET 0.000000 0.000000 0.000000
		CHANNELS 3 Zrotation Yrotation Xrotation
		JOINT RightUpLeg
		{
			OFFSET -1.800000 -1.400000 0.085000
			CHANNELS 3 Zrotation Yrotation Xrotation
			JOINT RightLeg
			{
				OFFSET -2.215000 -6.000000 0.000000
				CHANNELS 3 Zrotation Yrotation Xrotation
				JOINT RightFoot
				{
					OFFSET -2.500000 -6.900000 0.000000
					CHANNELS 3 Zrotation Yrotation Xrotation
					JOINT RightToeBase
					{
						OFFSET -0.200000 -0.500000 1.950000
						CHANNELS 3 Zrotation Yrotation Xrotation
						End Site
						{
							OFFSET 0.000000 0.000000 0.000000
						}
					}
				}
			}
		}
	}
	JOINT LowerBack
	{
		OFFSET 0.000000 0.000000 0.000000
		CHANNELS 3 Zrotation Yrotation Xrotation
		JOINT Spine
		{
			OFFSET -0.087000 1.940000 -0.288900
			CHANNELS 3 Zrotation Yrotation Xrotation
			JOINT Spine1
			{
				OFFSET 0.000000 1.950000 0.060000
				CHANNELS 3 Zrotation Yrotation Xrotation
				JOINT Neck
				{
					OFFSET 0.000000 0.000000 0.000000
					CHANNELS 3 Zrotation Yrotation Xrotation
					JOINT Neck1
					{
						OFFSET 0.000000 1.600000 0.340000
						CHANNELS 3 Zrotation Yrotation Xrotation
						JOINT Head
						{
							OFFSET 0.000000 1.667000 -0.240000
							CHANNELS 3 Zrotation Yrotation Xrotation
							End Site
							{
								OFFSET 0.000000 0.000000 0.000000
							}
						}
					}
				}
				JOINT LeftShoulder
				{
					OFFSET 0.000000 0.000000 0.000000
					CHANNELS 3 Zrotation Yrotation Xrotation
					JOINT LeftArm
					{
						OFFSET 2.700000 1.550000 -0.730000
						CHANNELS 3 Zrotation Yrotation Xrotation
						JOINT LeftForeArm
						{
							OFFSET 5.450000 0.000000 0.000000
							CHANNELS 3 Zrotation Yrotation Xrotation
							JOINT LeftHand
							{
								OFFSET 3.450000 0.000000 0.000000
								CHANNELS 3 Zrotation Yrotation Xrotation
								JOINT LeftHandIndex1
								{
									OFFSET 0.750000 0.000000 0.000000
									CHANNELS 3 Zrotation Yrotation Xrotation
									End Site
									{
										OFFSET 0.000000 0.000000 0.000000
									}
								}
							}
						}
					}
				}
				JOINT RightShoulder
				{
					OFFSET 0.000000 0.000000 0.000000
					CHANNELS 3 Zrotation Yrotation Xrotation
					JOINT RightArm
					{
						OFFSET -2.700000 1.550000 -0.730000
						CHANNELS 3 Zrotation Yrotation Xrotation
						JOINT RightForeArm
						{
							OFFSET -5.450000 0.000000 0.000000
							CHANNELS 3 Zrotation Yrotation Xrotation
							JOINT RightHand
							{
								OFFSET -3.450000 0.000000 0.000000
								CHANNELS 3 Zrotation Yrotation Xrotation
								JOINT RightHandIndex1
								{
									OFFSET -0.750000 0.000000 0.000000
									CHANNELS 3 Zrotation Yrotation Xrotation
									End Site
									{
										OFFSET 0.000000 0.000000 0.000000
									}
								}
							}
						}
					}
				}
			}
		}
	}
}
MOTION
Frames: 13
Frame Time: 0.016667
1.298650 13.398250 -1.683350 -81.180155 46.275860 -61.787776 -15.646874 12.115265 6.172675 -11.637162 -16.789304 -33.826259 -23.653317 13.234032 32.077129 0.807986 7.718954 1.943408 -0.237640 -0.746220 0.249880 18.003110 -9.641366 2.314808 -6.464907 4.300907 -31.847074 -26.533304 5.592366 50.519310 -1.057264 -7.657622 1.623476 -0.694020 0.433240 0.626590 -1.730414 -5.301449 -8.520959 -3.566515 4.603837 59.354856 -2.595815 3.141948 9.698491 10.061631 3.339531 -19.277861 4.668083 6.062763 39.191564 -11.944010 14.510840 -3.013180 -7.834901 -36.470673 16.656910 -6.207620 -13.237786 1.274629 7.947141 2.062996 -0.565880 -4.198127 2.604330 0.575230 0.212450 0.169310 -0.086070 -12.672305 40.464664 1.796727 -34.594592 23.726015 -19.133001 -99.283242 48.623758 -47.958767 2.455295 -0.643422 -0.064980 -0.047600 0.278090 -0.043340 
1.310810 13.377650 -1.684970 -81.321750 44.548641 -62.149958 -15.649273 12.014778 6.212270 -11.342523 -17.038780 -35.652355 -19.272133 12.378148 34.706900 0.735411 7.625907 2.006374 -0.264210 -0.765350 0.214770 18.012196 -9.641947 2.339921 -7.999964 4.155344 -33.160445 -20.887646 2.489119 50.401099 -0.854175 -7.130474 1.780619 -0.694570 0.536330 0.657380 -1.910532 -4.812546 -8.526397 -1.611615 3.460655 58.930504 -4.280356 3.345826 10.861772 10.497270 3.026660 -18.831398 4.260999 5.670374 37.543009 -12.736290 13.910950 -2.113130 -7.991980 -36.362099 16.479992 -5.066162 -12.598867 1.089618 7.613626 1.282714 -0.628621 -4.263623 2.613891 0.509100 0.287020 0.128230 -0.055030 -13.390053 40.679017 1.544737 -35.038939 24.594203 -18.848756 -101.663615 48.711228 -50.010645 2.464151 -0.651779 -0.068940 -0.005020 0.299930 -0.001770 
1.356550 13.353380 -1.670730 -78.974361 41.027717 -61.888594 -15.623870 12.130554 5.944905 -9.689577 -15.363630 -36.624291 -16.262774 11.512825 34.812346 0.473670 7.384973 2.119913 -0.236330 -0.724240 0.216670 18.013905 -9.631020 2.495401 -7.852934 5.050586 -33.140135 -15.217677 -0.009609 48.348842 -0.630286 -6.465748 2.014993 -0.566110 0.652470 0.604330 -2.214567 -4.162374 -8.422445 0.556427 2.760212 58.357516 -6.709076 4.257915 13.678268 11.271238 0.578919 -17.214690 0.538087 8.063825 34.247436 -12.035940 14.086890 -3.789940 -8.519068 -35.144597 15.566363 -3.384051 -11.874272 0.642600 8.220412 0.053806 -0.808223 -4.336450 2.593640 0.478150 0.368050 0.041510 -0.011730 -14.068793 41.350709 0.776143 -37.372786 25.557361 -19.296620 -103.410729 49.272982 -51.979550 2.364765 -0.656509 -0.185850 0.134080 0.304640 -0.019980 
1.414910 13.279490 -1.659170 -79.459649 37.789371 -63.205199 -15.504225 11.864271 5.719556 -8.673370 -14.661862 -36.872106 -14.335500 10.772619 35.140205 0.367357 7.145642 2.171924 -0.163010 -0.626930 0.250160 18.131225 -9.691973 2.696415 -11.338793 5.504200 -33.138936 -3.269848 -6.077647 48.452735 -0.604143 -6.607262 1.924480 -0.509520 0.618280 0.600070 -2.899044 -2.679367 -8.567795 6.759987 -0.760159 57.877232 -10.852587 3.533773 14.102715 11.518279 -0.416954 -16.145538 -0.814020 8.550507 34.581788 -10.813050 13.256110 -6.351490 -9.230486 -34.530922 15.020596 -3.561645 -11.998928 -0.095623 10.031816 -1.921198 -1.027514 -4.262219 2.698663 0.498150 0.330740 0.072840 -0.002770 -13.871178 40.384809 0.208776 -37.373836 29.644482 -18.740496 -104.388924 50.306254 -53.226411 2.349492 -0.548156 -0.166640 0.150970 0.279720 -0.017440 
1.468540 13.243070 -1.645530 -77.258050 35.693475 -63.259588 -15.435433 11.622028 5.407855 -7.824918 -13.800474 -36.476478 -13.769079 10.872200 35.469168 0.292149 7.192071 2.112926 -0.129990 -0.592040 0.232040 18.217924 -9.525881 3.045686 -15.904688 6.499237 -32.464899 7.864542 -11.174723 47.211508 -0.736095 -7.422811 1.595190 -0.455990 0.586180 0.611800 -3.287088 -1.854831 -8.748405 9.008011 -1.313777 57.648031 -13.167731 3.804658 15.083510 11.581329 -1.152603 -16.096580 -1.867020 9.264211 35.486232 -8.620530 12.494500 -6.676860 -9.102902 -34.686134 15.246113 -3.514927 -11.092731 -0.167937 9.908309 -2.625036 -1.107639 -4.221212 2.740084 0.542870 0.308130 0.085580 -0.008810 -14.048873 40.740699 -0.103318 -36.591369 31.306125 -18.371137 -105.835826 51.107633 -54.995893 2.336976 -0.490138 -0.179100 0.126290 0.288230 -0.035340 
1.528290 13.199940 -1.619750 -71.306590 32.029153 -60.528644 -15.424873 11.336882 4.884111 -5.590991 -11.717520 -36.967416 -15.173411 11.956526 34.581208 0.169920 7.472322 1.995454 -0.104360 -0.617920 0.293270 18.298796 -8.965255 3.796083 -20.608111 9.728837 -33.755578 19.255720 -16.030798 47.554941 -1.044050 -8.900851 1.086613 -0.382470 0.599570 0.582450 -3.490116 -1.463988 -8.989246 8.931955 0.781353 56.781628 -14.495694 5.796937 16.380233 11.903412 -3.000788 -15.618290 -4.669362 10.438711 34.739355 -8.033630 12.084560 -6.325580 -9.899230 -33.640599 14.957765 -4.042318 -10.182756 -0.225813 10.686825 -3.318243 -1.300319 -4.257849 2.733493 0.572750 0.326650 0.026370 -0.043050 -13.801137 41.995752 -0.510275 -37.109828 32.335414 -18.366291 -107.034652 52.520617 -56.977917 2.268402 -0.401660 -0.270760 0.160950 0.308330 -0.101140 
1.543890 13.148070 -1.590420 -67.866099 29.753365 -59.266602 -15.423880 10.935237 4.613748 -4.770789 -10.999810 -38.477185 -13.599908 12.611931 37.194929 0.184860 7.903330 1.805748 -0.129650 -0.671440 0.252270 18.389428 -8.386705 4.501047 -26.321445 11.360983 -34.940164 33.364708 -19.588392 41.324747 -1.291000 -9.616279 0.841217 -0.387590 0.590430 0.601980 -3.629097 -1.226776 -9.307731 9.160853 2.058212 56.566720 -15.665918 7.073774 15.513601 11.931496 -2.529016 -16.010783 -3.777390 10.546635 35.865538 -6.268910 11.840590 -4.302600 -10.702144 -33.605738 15.279746 -4.739205 -8.711991 -0.508433 11.594451 -4.302949 -1.431817 -4.250661 2.813611 0.602730 0.326140 0.011320 -0.060920 -13.194418 42.416486 -0.690183 -35.686446 32.969119 -17.483928 -108.884109 53.094156 -59.446470 2.263129 -0.353382 -0.291160 0.107790 0.342700 -0.123390 
1.530010 13.056820 -1.538110 -66.384990 28.818270 -55.843815 -15.440881 10.108126 4.779439 -6.665666 -12.572142 -43.318200 -10.677174 11.431241 37.970277 0.056683 7.598875 1.928015 -0.081200 -0.594410 0.231750 18.552972 -7.747390 5.091324 -31.395129 11.077140 -38.675600 45.037308 -20.021342 33.371102 -1.379063 -9.652474 0.831176 -0.278360 0.669190 0.605550 -3.820296 -0.794700 -9.687242 10.300417 2.042516 52.053541 -16.835296 7.382418 16.210979 12.253276 -3.519314 -15.296121 -5.081300 11.519406 34.208973 -5.337700 11.823580 -2.615430 -10.867000 -32.058382 14.518488 -6.145557 -9.203065 -0.455921 13.132745 -5.198331 -1.659859 -4.336623 2.902277 0.513690 0.405690 -0.055010 -0.006390 -13.579024 41.309767 -0.974442 -35.524578 34.699530 -17.149514 -108.766298 52.313428 -58.945829 2.236348 -0.518313 -0.316220 0.137370 0.326080 -0.105410 
1.531220 12.956290 -1.508840 -64.110043 26.181413 -52.908508 -15.394710 9.534840 4.909366 -7.233804 -12.952582 -48.084042 -6.221427 10.067387 39.738673 -0.152909 7.527660 1.920381 -0.073570 -0.679120 0.227480 18.704880 -7.416944 5.483307 -32.842827 11.787434 -41.455157 52.456077 -17.193010 25.737652 -1.313404 -9.101648 0.943117 -0.235060 0.702840 0.624430 -4.071575 -0.236273 -9.944865 12.235721 1.994892 48.749060 -18.216897 8.097961 15.577306 12.146451 -3.851026 -14.934791 -5.550203 11.837028 34.492743 -2.852920 10.669310 0.154780 -11.733329 -30.613367 13.943080 -7.830590 -8.918027 -0.075927 13.300851 -6.200589 -1.875953 -4.344907 3.006625 0.552730 0.418140 -0.128330 -0.002570 -12.576301 40.050550 -0.850769 -35.215616 37.042056 -16.826972 -107.785339 52.807029 -58.106614 2.172451 -0.562750 -0.403440 0.109100 0.371530 -0.159500 
1.518390 12.862870 -1.499370 -64.083636 25.775278 -49.906870 -15.408457 8.714135 5.380541 -9.506498 -15.386035 -53.946674 -0.099649 7.462188 41.361235 -0.235702 7.159284 2.034361 -0.009870 -0.616710 0.219150 18.849681 -6.826559 5.812944 -35.699830 10.513880 -42.343223 59.329119 -11.881736 15.255087 -1.216036 -8.353983 1.142370 -0.163270 0.723090 0.653590 -4.186861 -0.012571 -10.315469 13.561624 1.095371 44.698949 -18.529948 7.554962 15.682376 12.029058 -4.688308 -14.169434 -7.038721 12.415183 34.207010 -1.875530 10.046580 2.414170 -12.386802 -28.667067 13.043162 -10.104966 -9.721780 0.289076 14.269455 -6.399203 -2.015157 -4.371639 3.171116 0.466060 0.451860 -0.181980 0.038820 -11.637368 38.063233 -0.755423 -35.460040 39.314316 -16.665327 -106.089520 52.610205 -56.642283 2.132827 -0.737757 -0.378800 0.054650 0.350940 -0.141160 
1.533850 12.793230 -1.534750 -58.889578 26.569596 -47.663174 -15.580296 8.371440 5.592557 -12.882700 -17.012057 -56.375989 4.885544 5.901369 43.035689 -0.207311 7.090427 2.053760 0.135910 -0.491930 0.335550 18.786208 -6.052797 6.204997 -40.203535 10.007908 -39.276006 62.653518 -4.796981 5.473359 -1.189808 -7.717577 1.297966 -0.086840 0.646510 0.645360 -3.693050 -0.740241 -10.534001 7.906947 3.972414 45.097482 -16.816079 8.621106 16.741277 12.012730 -4.866145 -13.781269 -7.310749 12.147617 34.278032 -1.202600 9.042230 2.164540 -11.894917 -27.837569 12.803636 -11.787098 -10.129875 0.448129 14.966191 -5.520973 -2.028606 -4.303113 3.310979 0.449400 0.388920 -0.166770 0.086390 -12.193790 38.264866 -1.105919 -36.266697 36.937776 -17.746743 -104.574114 52.341092 -55.335629 2.175766 -0.923280 -0.341230 0.013370 0.251110 -0.151030 
1.574170 12.748050 -1.590730 -52.988486 28.274788 -45.449500 -15.779579 7.888494 5.859052 -17.391997 -19.409070 -59.098309 13.261005 3.446496 47.762936 -0.044576 7.829445 1.763358 0.170070 -0.481870 0.368960 18.742747 -4.974567 6.747822 -45.133624 9.613656 -33.767603 63.454559 3.318418 -5.604343 -1.173796 -7.190474 1.432273 -0.080810 0.578060 0.630810 -3.100049 -1.759942 -10.870483 0.785223 7.483553 46.193328 -14.761375 9.537611 16.639526 11.282036 -4.487811 -13.685324 -6.994212 11.400363 35.424886 -0.357890 7.595910 1.534050 -12.511528 -27.895895 13.005090 -12.336681 -9.295692 0.396849 14.750428 -5.236868 -1.981656 -4.236974 3.371680 0.484980 0.319440 -0.151370 0.070460 -10.350351 39.436601 -1.424370 -36.282831 35.804894 -19.056482 -100.553876 55.005762 -53.476351 2.118094 -0.808075 -0.333680 -0.017520 0.247860 -0.171220 
1.586530 12.666700 -1.579850 -46.599966 28.463569 -40.783477 -15.981610 7.150848 6.168477 -20.139604 -22.708104 -67.398234 20.648023 1.290845 52.099126 0.186607 9.065727 1.364945 0.080690 -0.615140 0.288950 18.757739 -3.651173 7.473305 -49.833597 10.210579 -29.802644 62.777255 12.169031 -17.454232 -1.103080 -6.739004 1.605809 -0.124370 0.673840 0.634470 -2.458255 -2.658708 -11.272096 -6.052610 11.508315 42.945017 -12.145765 10.997092 16.295485 10.694322 -3.982217 -13.516758 -6.227683 10.606473 36.283783 0.387560 6.210070 4.624810 -13.418640 -27.132633 12.787224 -14.919212 -8.990553 0.396451 16.620400 -4.689449 -2.084073 -4.325845 3.426230 0.437740 0.374170 -0.246890 0.066920 -8.312139 39.944272 -1.108979 -35.547442 36.283352 -20.097889 -94.634650 56.202807 -48.958719 2.106471 -0.838598 -0.380990 -0.019970 0.318220 -0.159090 
